# xmcd
#
# Track frame offsets:
#	150
#	26134
#	41153
#	55304
#	67180
#	82869
#	98494
#	111992
#	131132
#	139772
#	155998
#	166298
#	187377
#	199707
#	215915
#	229007
#	241162
#	264593
#	282177
#	296095
#
# Disc length: 4133 seconds
#
# Revision: 0
# Processed by: cddbd v1.5.2PL0 Copyright (c) Steve Scherf et al.
# Submitted via: audiograbber 1.83.01
#
DISCID=3d102314
DTITLE=Various Artist - Hard Dance Awards 2011 [CD2]
DYEAR=2011
DGENRE=Dance
TTITLE0=Technikal - Tidy Up
TTITLE1=A.S.Y.S - Klick-Klack WTF
TTITLE2=Mark Young and Derek Jones - Dust Til Dawn
TTITLE3=Klubfiller - Breathe
TTITLE4=Steve Hill vs Technikal - Technique Pt.3
TTITLE5=Cally Gage and Energy Syndicate - Music Is My Life
TTITLE6=Karlston Khaos - Don't Stop
TTITLE7=Rock N Roller Ft. Fraz - Alone
TTITLE8=AWsum All-Starz - Time 2 Burn
TTITLE9=BK - Hardstep
TTITLE10=Gammer - Major Panic (Have It Back)
TTITLE11=Tom Berry - In Control
TTITLE12=AWsum All-Starz - 10 In 01
TTITLE13=Karlston Khaos - Hard Dub
TTITLE14=Andy Whitby and Klubfiller - Blam
TTITLE15=Andy Whitby and Technikal - Rumble
TTITLE16=Showtek Ft. MC Stretch - Dutchie
TTITLE17=Tuneboy - Tunebeat
TTITLE18=Gammer and Klubfiller - Pure Fish
TTITLE19=Afrojack Ft. Eva Simons - Take Over Control
EXTD=
EXTT0=
EXTT1=
EXTT2=
EXTT3=
EXTT4=
EXTT5=
EXTT6=
EXTT7=
EXTT8=
EXTT9=
EXTT10=
EXTT11=
EXTT12=
EXTT13=
EXTT14=
EXTT15=
EXTT16=
EXTT17=
EXTT18=
EXTT19=
PLAYORDER=
